<svg width="450" height="77" viewBox="0 0 450 77" fill="none" xmlns="http://www.w3.org/2000/svg">
<path d="M19.776 62.512C16.4053 62.512 13.1413 62 9.984 60.976C6.86933 59.9093 4.416 58.544 2.624 56.88L4.992 51.888C6.69867 53.424 8.87467 54.6827 11.52 55.664C14.208 56.6027 16.96 57.072 19.776 57.072C23.488 57.072 26.2613 56.4533 28.096 55.216C29.9307 53.936 30.848 52.2507 30.848 50.16C30.848 48.624 30.336 47.3867 29.312 46.448C28.3307 45.4667 27.0933 44.72 25.6 44.208C24.1493 43.696 22.08 43.12 19.392 42.48C16.0213 41.6693 13.2907 40.8587 11.2 40.048C9.152 39.2373 7.38133 38 5.888 36.336C4.43733 34.6293 3.712 32.3467 3.712 29.488C3.712 27.0987 4.33067 24.944 5.568 23.024C6.848 21.104 8.768 19.568 11.328 18.416C13.888 17.264 17.0667 16.688 20.864 16.688C23.5093 16.688 26.112 17.0293 28.672 17.712C31.232 18.3947 33.4293 19.376 35.264 20.656L33.152 25.776C31.2747 24.5813 29.2693 23.6853 27.136 23.088C25.0027 22.448 22.912 22.128 20.864 22.128C17.2373 22.128 14.5067 22.7893 12.672 24.112C10.88 25.4347 9.984 27.1413 9.984 29.232C9.984 30.768 10.496 32.0267 11.52 33.008C12.544 33.9467 13.8027 34.6933 15.296 35.248C16.832 35.76 18.9013 36.3147 21.504 36.912C24.8747 37.7227 27.584 38.5333 29.632 39.344C31.68 40.1547 33.4293 41.392 34.88 43.056C36.3733 44.72 37.12 46.96 37.12 49.776C37.12 52.1227 36.48 54.2773 35.2 56.24C33.92 58.16 31.9787 59.696 29.376 60.848C26.7733 61.9573 23.5733 62.512 19.776 62.512ZM64.646 60.016C63.75 60.784 62.6407 61.3813 61.318 61.808C59.9953 62.192 58.63 62.384 57.222 62.384C53.8087 62.384 51.1633 61.4667 49.286 59.632C47.4087 57.7973 46.47 55.1733 46.47 51.76V33.136H40.71V28.08H46.47V20.656H52.614V28.08H62.342V33.136H52.614V51.504C52.614 53.3387 53.062 54.7467 53.958 55.728C54.8967 56.7093 56.2193 57.2 57.926 57.2C59.8033 57.2 61.4033 56.6667 62.726 55.6L64.646 60.016ZM72.074 28.08H78.218V62H72.074V28.08ZM75.146 21.552C73.9513 21.552 72.9487 21.168 72.138 20.4C71.37 19.632 70.986 18.6933 70.986 17.584C70.986 16.4747 71.37 15.536 72.138 14.768C72.9487 13.9573 73.9513 13.552 75.146 13.552C76.3407 13.552 77.322 13.936 78.09 14.704C78.9007 15.4293 79.306 16.3467 79.306 17.456C79.306 18.608 78.9007 19.5893 78.09 20.4C77.322 21.168 76.3407 21.552 75.146 21.552ZM104.733 62.384C101.277 62.384 98.1837 61.6373 95.453 60.144C92.765 58.6507 90.653 56.6027 89.117 54C87.581 51.3547 86.813 48.368 86.813 45.04C86.813 41.712 87.581 38.7467 89.117 36.144C90.653 33.4987 92.765 31.4507 95.453 30C98.1837 28.5067 101.277 27.76 104.733 27.76C107.805 27.76 110.536 28.3787 112.925 29.616C115.357 30.8533 117.234 32.6453 118.557 34.992L113.885 38C112.818 36.3787 111.496 35.1627 109.917 34.352C108.338 33.5413 106.589 33.136 104.669 33.136C102.45 33.136 100.445 33.6267 98.653 34.608C96.9037 35.5893 95.517 36.9973 94.493 38.832C93.5117 40.624 93.021 42.6933 93.021 45.04C93.021 47.4293 93.5117 49.5413 94.493 51.376C95.517 53.168 96.9037 54.5547 98.653 55.536C100.445 56.5173 102.45 57.008 104.669 57.008C106.589 57.008 108.338 56.6027 109.917 55.792C111.496 54.9813 112.818 53.7653 113.885 52.144L118.557 55.088C117.234 57.4347 115.357 59.248 112.925 60.528C110.536 61.7653 107.805 62.384 104.733 62.384ZM139.258 46.192L132.218 52.72V62H126.074V14.512H132.218V44.976L150.714 28.08H158.138L143.866 42.096L159.546 62H151.994L139.258 46.192ZM194.73 45.232C194.73 45.7013 194.687 46.32 194.602 47.088H167.082C167.466 50.0747 168.767 52.4853 170.986 54.32C173.247 56.112 176.042 57.008 179.37 57.008C183.423 57.008 186.687 55.6427 189.162 52.912L192.554 56.88C191.018 58.672 189.098 60.0373 186.794 60.976C184.533 61.9147 181.994 62.384 179.178 62.384C175.594 62.384 172.415 61.6587 169.642 60.208C166.869 58.7147 164.714 56.6453 163.178 54C161.685 51.3547 160.938 48.368 160.938 45.04C160.938 41.7547 161.663 38.7893 163.114 36.144C164.607 33.4987 166.634 31.4507 169.194 30C171.797 28.5067 174.719 27.76 177.962 27.76C181.205 27.76 184.085 28.5067 186.602 30C189.162 31.4507 191.146 33.4987 192.554 36.144C194.005 38.7893 194.73 41.8187 194.73 45.232ZM177.962 32.944C175.018 32.944 172.543 33.84 170.538 35.632C168.575 37.424 167.423 39.7707 167.082 42.672H188.842C188.501 39.8133 187.327 37.488 185.322 35.696C183.359 33.8613 180.906 32.944 177.962 32.944ZM209.15 33.776C210.216 31.8133 211.795 30.32 213.885 29.296C215.976 28.272 218.515 27.76 221.502 27.76V33.712C221.16 33.6693 220.691 33.648 220.094 33.648C216.766 33.648 214.142 34.6507 212.222 36.656C210.344 38.6187 209.406 41.4347 209.406 45.104V62H203.262V28.08H209.15V33.776ZM277.739 38.768C280.342 39.4933 282.39 40.816 283.883 42.736C285.376 44.6133 286.123 47.0027 286.123 49.904C286.123 53.7867 284.651 56.7733 281.707 58.864C278.806 60.9547 274.56 62 268.971 62H247.595V17.2H267.691C272.811 17.2 276.758 18.224 279.531 20.272C282.347 22.32 283.755 25.1573 283.755 28.784C283.755 31.1307 283.2 33.1573 282.091 34.864C281.024 36.5707 279.574 37.872 277.739 38.768ZM253.995 22.384V36.72H267.115C270.4 36.72 272.918 36.1227 274.667 34.928C276.459 33.6907 277.355 31.8987 277.355 29.552C277.355 27.2053 276.459 25.4347 274.667 24.24C272.918 23.0027 270.4 22.384 267.115 22.384H253.995ZM268.715 56.816C272.342 56.816 275.072 56.2187 276.907 55.024C278.742 53.8293 279.659 51.952 279.659 49.392C279.659 44.4 276.011 41.904 268.715 41.904H253.995V56.816H268.715ZM309.665 62.384C306.294 62.384 303.265 61.6373 300.577 60.144C297.889 58.6507 295.777 56.6027 294.241 54C292.747 51.3547 292.001 48.368 292.001 45.04C292.001 41.712 292.747 38.7467 294.241 36.144C295.777 33.4987 297.889 31.4507 300.577 30C303.265 28.5067 306.294 27.76 309.665 27.76C313.035 27.76 316.043 28.5067 318.689 30C321.377 31.4507 323.467 33.4987 324.961 36.144C326.497 38.7467 327.265 41.712 327.265 45.04C327.265 48.368 326.497 51.3547 324.961 54C323.467 56.6027 321.377 58.6507 318.689 60.144C316.043 61.6373 313.035 62.384 309.665 62.384ZM309.665 57.008C311.841 57.008 313.782 56.5173 315.489 55.536C317.238 54.512 318.603 53.104 319.585 51.312C320.566 49.4773 321.057 47.3867 321.057 45.04C321.057 42.6933 320.566 40.624 319.585 38.832C318.603 36.9973 317.238 35.5893 315.489 34.608C313.782 33.6267 311.841 33.136 309.665 33.136C307.489 33.136 305.526 33.6267 303.777 34.608C302.07 35.5893 300.705 36.9973 299.681 38.832C298.699 40.624 298.209 42.6933 298.209 45.04C298.209 47.3867 298.699 49.4773 299.681 51.312C300.705 53.104 302.07 54.512 303.777 55.536C305.526 56.5173 307.489 57.008 309.665 57.008ZM347.801 27.76C352.494 27.76 356.078 28.912 358.553 31.216C361.07 33.52 362.329 36.9547 362.329 41.52V62H356.505V57.52C355.481 59.0987 354.009 60.3147 352.089 61.168C350.212 61.9787 347.972 62.384 345.369 62.384C341.572 62.384 338.521 61.4667 336.217 59.632C333.956 57.7973 332.825 55.3867 332.825 52.4C332.825 49.4133 333.913 47.024 336.089 45.232C338.265 43.3973 341.721 42.48 346.457 42.48H356.185V41.264C356.185 38.6187 355.417 36.592 353.881 35.184C352.345 33.776 350.084 33.072 347.097 33.072C345.092 33.072 343.129 33.4133 341.209 34.096C339.289 34.736 337.668 35.6107 336.345 36.72L333.785 32.112C335.534 30.704 337.625 29.6373 340.057 28.912C342.489 28.144 345.07 27.76 347.801 27.76ZM346.393 57.648C348.74 57.648 350.766 57.136 352.473 56.112C354.18 55.0453 355.417 53.552 356.185 51.632V46.896H346.713C341.508 46.896 338.905 48.6453 338.905 52.144C338.905 53.8507 339.566 55.1947 340.889 56.176C342.212 57.1573 344.046 57.648 346.393 57.648ZM379.587 33.776C380.654 31.8133 382.232 30.32 384.323 29.296C386.414 28.272 388.952 27.76 391.939 27.76V33.712C391.598 33.6693 391.128 33.648 390.531 33.648C387.203 33.648 384.579 34.6507 382.659 36.656C380.782 38.6187 379.843 41.4347 379.843 45.104V62H373.699V28.08H379.587V33.776ZM431.199 14.512V62H425.311V56.624C423.946 58.5013 422.218 59.9307 420.127 60.912C418.036 61.8933 415.732 62.384 413.215 62.384C409.93 62.384 406.986 61.6587 404.383 60.208C401.78 58.7573 399.732 56.7307 398.239 54.128C396.788 51.4827 396.063 48.4533 396.063 45.04C396.063 41.6267 396.788 38.6187 398.239 36.016C399.732 33.4133 401.78 31.3867 404.383 29.936C406.986 28.4853 409.93 27.76 413.215 27.76C415.647 27.76 417.887 28.2293 419.935 29.168C421.983 30.064 423.69 31.408 425.055 33.2V14.512H431.199ZM413.727 57.008C415.86 57.008 417.802 56.5173 419.551 55.536C421.3 54.512 422.666 53.104 423.647 51.312C424.628 49.4773 425.119 47.3867 425.119 45.04C425.119 42.6933 424.628 40.624 423.647 38.832C422.666 36.9973 421.3 35.5893 419.551 34.608C417.802 33.6267 415.86 33.136 413.727 33.136C411.551 33.136 409.588 33.6267 407.839 34.608C406.132 35.5893 404.767 36.9973 403.743 38.832C402.762 40.624 402.271 42.6933 402.271 45.04C402.271 47.3867 402.762 49.4773 403.743 51.312C404.767 53.104 406.132 54.512 407.839 55.536C409.588 56.5173 411.551 57.008 413.727 57.008Z" fill="black"/>
<g filter="url(#filter0_d)">
<path d="M169 67.3557C167.5 67.3557 163.5 61.189 161 57.3557C164.5 54.8557 170.732 49.5879 172.5 51.3557C173.5 52.3557 176.5 58.5224 179 60.8557C176.5 62.189 170.5 67.3557 169 67.3557Z" fill="#FFD466"/>
<path d="M169 67.3557C167.5 67.3557 163.5 61.189 161 57.3557C164.5 54.8557 170.732 49.5879 172.5 51.3557C173.5 52.3557 176.5 58.5224 179 60.8557C176.5 62.189 170.5 67.3557 169 67.3557Z" stroke="black" stroke-width="0.6"/>
</g>
<g filter="url(#filter1_d)">
<path d="M354 30H342.5C340.5 31 341.167 36.8333 339 39C341.5 39.1667 347.1 39.6 349.5 40C351.9 40.4 353.833 33.5 354 30Z" fill="#FFD466"/>
<path d="M354 30H342.5C340.5 31 341.167 36.8333 339 39C341.5 39.1667 347.1 39.6 349.5 40C351.9 40.4 353.833 33.5 354 30Z" stroke="black" stroke-width="0.6"/>
</g>
<g filter="url(#filter2_d)">
<path d="M50.0487 30L41.5487 30.8647C41.0487 31 37.5487 39 38.0487 38.8732C41.0487 39 47.2325 39.9487 47.5487 39C48.0487 37.5 50.2154 32.8333 50.0487 30Z" fill="#FFD466"/>
<path d="M50.0487 30L41.5487 30.8647C41.0487 31 37.5487 39 38.0487 38.8732C41.0487 39 47.2325 39.9487 47.5487 39C48.0487 37.5 50.2154 32.8333 50.0487 30Z" stroke="black" stroke-width="0.6"/>
</g>
<defs>
<filter id="filter0_d" x="156.592" y="50.7002" width="26.92" height="24.9555" filterUnits="userSpaceOnUse" color-interpolation-filters="sRGB">
<feFlood flood-opacity="0" result="BackgroundImageFix"/>
<feColorMatrix in="SourceAlpha" type="matrix" values="0 0 0 0 0 0 0 0 0 0 0 0 0 0 0 0 0 0 127 0"/>
<feOffset dy="4"/>
<feGaussianBlur stdDeviation="2"/>
<feColorMatrix type="matrix" values="0 0 0 0 0 0 0 0 0 0 0 0 0 0 0 0 0 0 0.25 0"/>
<feBlend mode="normal" in2="BackgroundImageFix" result="effect1_dropShadow"/>
<feBlend mode="normal" in="SourceGraphic" in2="effect1_dropShadow" result="shape"/>
</filter>
<filter id="filter1_d" x="334.32" y="29.7" width="23.9942" height="18.617" filterUnits="userSpaceOnUse" color-interpolation-filters="sRGB">
<feFlood flood-opacity="0" result="BackgroundImageFix"/>
<feColorMatrix in="SourceAlpha" type="matrix" values="0 0 0 0 0 0 0 0 0 0 0 0 0 0 0 0 0 0 127 0"/>
<feOffset dy="4"/>
<feGaussianBlur stdDeviation="2"/>
<feColorMatrix type="matrix" values="0 0 0 0 0 0 0 0 0 0 0 0 0 0 0 0 0 0 0.25 0"/>
<feBlend mode="normal" in2="BackgroundImageFix" result="effect1_dropShadow"/>
<feBlend mode="normal" in="SourceGraphic" in2="effect1_dropShadow" result="shape"/>
</filter>
<filter id="filter2_d" x="33.7" y="29.6699" width="20.6578" height="18.0472" filterUnits="userSpaceOnUse" color-interpolation-filters="sRGB">
<feFlood flood-opacity="0" result="BackgroundImageFix"/>
<feColorMatrix in="SourceAlpha" type="matrix" values="0 0 0 0 0 0 0 0 0 0 0 0 0 0 0 0 0 0 127 0"/>
<feOffset dy="4"/>
<feGaussianBlur stdDeviation="2"/>
<feColorMatrix type="matrix" values="0 0 0 0 0 0 0 0 0 0 0 0 0 0 0 0 0 0 0.25 0"/>
<feBlend mode="normal" in2="BackgroundImageFix" result="effect1_dropShadow"/>
<feBlend mode="normal" in="SourceGraphic" in2="effect1_dropShadow" result="shape"/>
</filter>
</defs>
</svg>
